<svg version="1.1" xmlns="http://www.w3.org/2000/svg" viewBox="0 0 1758.234374999999 1351.5193452380954">
  <!-- svg-source:excalidraw -->
  <defs>
    <style>
      @font-face {
        font-family: "Virgil";
        src: url("https://excalidraw.com/FG_Virgil.woff2");
      }
      @font-face {
        font-family: "Cascadia";
        src: url("https://excalidraw.com/Cascadia.woff2");
      }
    </style>
  </defs>
  <rect x="0" y="0" width="1758.234374999999" height="1351.5193452380954" fill="#ffffff"></rect><g transform="translate(479.3374255952381 182.76953125) rotate(0 287.78125 177.33984375)"><path d="M-0.2041613392531872 -0.6720070905983448 C143.6534233033599 -1.0703949065280616, 286.8323160819593 -0.4136892170978247, 575.6197634167969 -0.6376077957451344 M0.13467417620122432 0.05715940929949284 C146.28520114878776 2.338022921625292, 292.618793535803 2.2940288644467945, 575.857449766621 -0.07981543801724911 M575.7284644567094 -0.24172759369772553 C577.7580907032003 110.0691623838804, 577.2508782159161 216.86493072772942, 574.5081109917612 355.38573711534343 M575.4018043617915 0.27992228748797765 C576.7906768346112 72.5388021109905, 576.4361706696334 144.46907545823677, 575.1022741990625 355.0762667346957 M575.3530238814652 355.05796970650556 C457.3425220105855 356.0907731031102, 340.61724429131715 355.46424667584125, 0.15831002667546273 354.8629851512611 M575.5657766189427 354.44536047913135 C405.7054589438194 353.37633781127283, 235.52398305031238 353.9152561991627, 0.20581829212605954 354.53446671701965 M-0.7118090802365155 355.31428939065796 C0.9032996749609309 278.41918205433575, 0.8718308646863405 204.85339491846904, 1.1079784690103995 -0.4850853239963104 M-0.27904475799469464 354.73031518809205 C1.6609485681053395 250.3323779645036, 2.044206299361621 145.19935366990237, 0.04563671457883345 0.3419831536198124" stroke="#000000" stroke-width="1" fill="none"></path></g><g transform="translate(656.9389880952381 195.015625) rotate(0 194.37890625 167.7734375)"><path d="M0.6023812366972204 -0.4250267259639238 C89.64155897492967 -2.237976494282178, 180.9268881822377 -2.195513499046005, 389.33628098104043 -0.40256817410874474 M0.5049863792001774 -0.22108866572726016 C83.14757651928748 -1.3333732197776846, 166.84948853618863 -1.112391583192914, 388.803961939925 -0.17191712620905855 M388.8536187395432 0.7179333621578471 C388.1343388082053 129.92843481856522, 390.4956392542595 261.5763731153537, 388.48258989894725 334.34508970643105 M388.5964057727024 -0.6581635732613383 C387.027525938869 90.3149892390191, 386.719323344763 180.91785201049828, 388.3802152712462 336.0615697606703 M389.24037313513617 334.54407419341004 C298.0986331507539 334.07869294756506, 207.51922735675876 333.6679289052094, -0.6305837038560165 334.9697686662178 M388.31133416094946 335.0985102944598 C252.17204357072112 336.7560621260623, 115.79893319802106 336.81939467289357, 0.24703600706407852 335.42128762763866 M-0.7949180966371953 336.05894922594166 C0.5005667509905187 253.75182788693164, 1.5060772891471603 171.70968292585076, -0.9020543519659306 0.20705750255819913 M-0.46931967122587487 335.6516199432904 C-1.3604952875450684 231.14529150725394, -0.9310876233571521 126.68546651875273, 0.5202033783838113 -0.11536084754467402" stroke="#000000" stroke-width="1" fill="none"></path></g><g transform="translate(833.9143931878309 339.0939429012345) rotate(0 17.5 12)"><text x="0" y="19" font-family="Cascadia" font-size="20px" fill="#000000" text-anchor="start" style="white-space: pre;" direction="ltr">Map</text></g><g transform="translate(492.0405505952381 194.703125) rotate(0 78.94921875 166.701171875)"><path d="M0 0 C0 0, 0 0, 0 0 M0 0 C0 0, 0 0, 0 0 M-0.9550123750837395 6.177780620058171 C0.8613121261261865 4.077011719180759, 3.232990127798613 1.8494533133984357, 4.912583434911913 1.0543410722014719 M-0.6283614437701055 6.744886060481064 C0.6260193006581103 4.922930648563139, 2.3185935503639974 3.8709638878604413, 4.7926563523286045 0.05413769333038865 M-1.413219556855072 10.658949642300188 C4.6046920602691515 7.148616841234176, 5.853022131101774 4.392678697211114, 9.763514116358888 -0.1114783425733683 M0.6877731026243079 11.675615371435462 C2.4790712316991548 8.739736257534588, 6.032869039050022 6.765696000373579, 11.05819538305415 -0.5520536956295607 M1.7931032767006894 19.04858649978476 C2.026849058525092 15.457597513791752, 8.490033788722602 11.817772106979096, 13.726133757739742 1.2405851918202808 M0.8265804685139795 18.026112519112104 C4.147708939355451 15.357284271198669, 7.0976283983443365 10.886609750158662, 16.473833410538216 -0.5494745730492303 M1.5216009861043904 23.161557431980132 C6.772585995898842 16.275333422693166, 15.394171694346436 6.76433462238726, 20.735133804658318 -0.5588935432792184 M0.2640694968587969 24.859040057933985 C6.479777488904013 17.22603292033526, 12.931844203111458 9.047778954822691, 21.087062699066365 -0.5992315724328634 M0.3297288297255889 29.480835158143393 C10.8085114704528 20.935231441378892, 20.157023487877325 8.312071121069195, 26.488619942825647 2.1098363710579218 M0.2138335034762875 31.097541778113893 C6.763236675567642 22.636039628803267, 13.602953525169728 13.653607273973812, 25.641369456101568 0.48159171305715454 M-2.2277114876639565 38.459412734770524 C9.736933850870154 24.763317148962958, 22.3072799089437 11.229025499058423, 32.48065603100399 -1.556894713895094 M0.5695718982163349 36.12573256231968 C6.444564591957077 28.635531140561014, 14.621052577977228 20.027268609631907, 31.59178555798421 -0.22349785163409663 M-0.14084013629248204 43.62645509335749 C14.265750387360857 27.089837175752972, 29.37069902508601 8.177351834080199, 38.348647936993586 0.41975374902603235 M-0.3306799715711719 41.8677663557192 C8.954871261941882 32.20783500705923, 17.352949588933203 23.890931206545236, 36.55719270259266 1.084133981829556 M-1.1003762483597583 49.03892778106861 C14.511813872861769 30.82007081455338, 31.46573937391689 12.150859128436714, 42.93431576955669 -2.0490441389055007 M-1.0789779080078787 47.95821490664862 C9.562154750954443 37.62845559788339, 21.169603580362065 24.83437006578634, 43.16254464126729 0.7868222033931858 M1.9072752848964782 53.18612989917706 C9.684991820252023 44.84939793025453, 19.40715754253113 30.106718680653522, 48.847721646493554 0.10539591947460636 M0.9886943402466031 54.36535070505302 C16.76318755796453 34.58004591206488, 33.96798594563579 14.678945781612889, 48.38414494688648 0.7945291863929675 M-0.8359484187235324 62.21487074484716 C15.87428456977554 39.77306235777452, 36.090929896968554 18.024225276203296, 51.52824192656642 -1.7409082245604388 M-0.8622971539293616 60.335073624268574 C11.40133432486558 47.57008960058539, 22.45517277134385 35.0121144613649, 52.3918692457906 0.4134180457739838 M0.6251449705519647 65.83400274957488 C16.215071667548678 50.632311058086586, 31.180907672738808 30.78216073403214, 59.80859497757555 -0.6794285238463438 M-0.5790732931858926 67.01419385946313 C11.883643943227876 54.12748031481299, 23.813455156772477 40.598358678965766, 57.894442985858035 -0.7102207201275981 M-0.23667409250527527 74.76605021985618 C17.05370295788189 51.977173923001644, 35.539249220677156 33.68333861152835, 64.97581340828319 0.8806966228900919 M-0.69566904267311 72.62081066830454 C16.182679304064415 56.517483889253995, 30.172047489509374 37.72608908679893, 62.98166366842915 -0.7213958713667026 M-0.5867341150950125 80.19883807785538 C20.320058140688626 56.4860419873048, 45.18649237417895 30.27006226743763, 69.33527183648958 0.4378390128131642 M-0.7074605170126489 78.61469111162899 C15.776591406490093 60.966104011715515, 32.966188893564656 41.19076409226669, 68.46967861638232 -0.6124887846071587 M2.176450636545013 83.69002479984567 C26.830596225290662 54.53593543859388, 52.299267286398106 27.53901113903556, 75.27165912095698 -1.4522960028039051 M0.11499822263587589 85.32055299188153 C22.616295890329148 59.87126628337319, 45.27690003402088 33.87452208597811, 74.74320720605793 -0.35468009490386976 M0.9852079052150415 92.39227905799136 C30.955053046438994 54.764427676177135, 62.93633666124097 20.683056780416763, 77.81300612948564 0.048507123203151536 M-0.9287470633491708 91.87199149489835 C19.08490191103981 70.8520659643801, 36.08834201973947 51.81338370524469, 79.10081863533435 0.04597694607930691 M1.5076206456868277 96.95781265878841 C27.244775263338443 63.50846731310321, 55.42367905869713 31.516544107562964, 85.69165797083781 1.2107974921075595 M-0.7828875901179089 97.83476212834731 C21.38698148529922 71.43427451953451, 42.348975111838364 46.441049315256905, 84.59715415555195 0.4171298282874716 M-0.008150062267873182 102.9900092837328 C25.39632407274289 72.4347073115806, 53.11068432573191 40.93095380904804, 89.90830176281372 -1.0373655989263995 M0.9902213646795417 103.37715946239624 C24.378501914306536 75.17963945294679, 48.377148617244565 47.52919033151903, 89.3882048395891 -0.6359465749432189 M-0.8895421008488213 108.49505322998883 C31.99453494123696 73.05197236580258, 64.22817591946392 38.08690942735649, 96.79293886417568 -1.9605892986255071 M0.8356333739215458 110.44039587038131 C20.095491597896842 87.50130550973017, 39.84663501048914 63.763304079724705, 95.57353381378621 0.13822335133232855 M0.36532088870624335 115.78646234882972 C30.797750937863942 80.3049366576698, 62.96823332761191 43.394521745698384, 100.56891264272386 0.2090294401745254 M-0.6080259360515115 115.36188446724763 C35.88450695209686 74.70475295147982, 72.45119583850294 32.312241732787044, 100.5415540260216 -0.41875739454972205 M0.6516572741975608 120.71026468741974 C25.221954305444896 93.87779945404932, 47.83110951813823 67.26827984589079, 104.41388070722056 -0.5782727812530979 M0.8367188826387348 121.81916575133135 C38.37999872036277 77.04221682321155, 75.1405292453787 33.5168469400452, 105.81175047763568 -0.006585072644291756 M0.6629406353968861 128.54953142725486 C21.559189173071054 99.53458200612852, 48.25991540357314 71.2366516031644, 113.02384267546601 -0.9647491657440881 M-0.9276436976578353 127.45319054280031 C25.144154675911246 96.90029647325744, 51.94438288908101 67.18206165703455, 110.37995799150683 0.07767144038478335 M0.7352226770759813 135.4760056248311 C28.502545335445596 98.98976175311023, 59.50118445102956 65.88514967026693, 117.01805337723198 -0.2806097818024469 M0.35196073290866536 133.0386987243224 C37.05891408502232 92.75434507362492, 72.87823856705621 52.09077414661678, 116.9045244149849 -0.4371464102946234 M-1.3085438579649349 140.00173095231273 C35.730316999445435 99.6217253801394, 71.32144972134766 57.81598108618026, 120.7833457672902 0.9076071770677743 M-1.0952345652834197 140.65459798173376 C39.47656390075194 95.78942236265846, 78.23704169102369 49.29400918139956, 122.33188353291979 0.3740918829853115 M0.24640801403641888 144.88358463597294 C27.853547912714454 116.08470745135558, 55.80668828216768 82.63330355116256, 128.31845383844092 0.24866413303089274 M0.12232572160631605 145.30724674247946 C50.8839524465696 88.99178886288884, 101.39495824897952 30.460762055904496, 127.52212798068985 0.8031846310607804 M1.410839845608542 152.35352394079487 C28.97117925445079 120.25235523131568, 58.57375276432663 87.01553366580539, 133.52617783631902 -0.4438802343933245 M0.8128788298919435 152.82509108486602 C49.529354962545675 95.56332503790738, 100.11994109244976 39.61717039724186, 132.4468439265856 -0.7839545765374163 M-0.29651695627003655 158.09083554747195 C32.09190849666861 119.31207888597949, 66.05871163729437 77.78740168873178, 139.13039758442196 -0.13324271872957744 M-1.0504729909757182 159.61950826950934 C49.35491994052966 102.58526115851055, 97.28218520669635 46.73850134616987, 138.36623143354953 -0.33895148286897814 M-1.4082441470509406 166.02238246876612 C35.511320852812155 124.47464436378563, 73.45516312659385 83.64189075852485, 143.60025303750683 -1.0992024004970486 M-0.11049314918415915 164.84582769617248 C35.11811988990762 124.02275008780335, 67.9871262010104 85.4557615572578, 142.44641386101566 -0.7483156068792178 M-0.1495547988814541 171.6943294455978 C41.08933710230747 117.53842029364708, 86.63514560913647 68.0094202290587, 147.20947255213733 1.463257966888667 M0.6559096245347421 171.2182785688037 C36.587067608984114 128.62306417499266, 72.87683902578947 86.62198152326827, 148.31762907795917 -0.27967528651436957 M1.2186009117407017 175.75628679330873 C39.97918177791936 126.79121330946778, 82.34284070729122 80.3062006619841, 154.99084453052663 -1.0768975455665322 M-0.2654805619325804 176.2323311103041 C47.25724173743948 122.12102120262395, 94.53379712098878 66.55519121288437, 154.21795761697356 0.3013759342320752 M-0.1935025717067856 182.0714299871944 C32.93286510247053 144.43182837134776, 68.02604456389592 104.83845569710415, 157.87644574486336 0.2831077430968021 M0.7173709778694659 182.44258318243448 C54.06228788436918 118.99608209911558, 109.79658723282483 55.3668690256669, 157.9773063142214 0.3290168252264247 M-0.3431645319097072 190.12448731951216 C29.83572816630644 154.4242520791009, 63.36919933596592 116.5133753850835, 157.27024955758603 8.293446765489486 M-0.3783734941523295 188.66801730589108 C40.51264384523293 140.49267645246636, 82.26056598986192 94.23900061084005, 158.31297665936845 5.849853704213182 M1.2415855426707412 193.46379049795823 C44.29089169465547 145.32771315526543, 85.84950703352557 96.6256804168094, 157.73820983654966 12.36429890668234 M0.23223087383960123 194.7476689500088 C35.47659455880208 152.2553712518313, 73.26247888555139 109.69838747909664, 157.64538915597058 12.667684274286385 M-0.5978323648693662 202.8009315169903 C49.78073763744694 142.45629882464547, 99.75548707150247 82.71714876341028, 157.5277550267031 17.668782708376245 M0.10868496147522405 202.0372986967068 C48.73614571451244 144.41134172768616, 98.49200663765977 86.36671506300175, 158.15112681125987 18.773821449045794 M-0.589010754321916 206.83675375927626 C37.74988186385423 164.85829357999904, 74.11340260446256 118.60980063123331, 157.6452236446107 26.514912015681062 M0.6609911766512504 207.21966296498323 C49.00689019747323 150.15040072061828, 97.70010068606292 94.8531349103646, 159.05243846816944 24.555253619131438 M1.5949605580089732 212.5137175711792 C59.54465131516042 143.22698801269647, 118.43046476531025 73.85542141003764, 158.01129948183393 29.067362923110522 M-0.10099957890706315 213.2449876971798 C57.62024728157069 147.7242355559598, 115.54919483891952 80.46040442423762, 158.38865556377232 29.936287771748567 M0.7855718049082694 219.1223261339558 C50.63787835126381 164.63487765439314, 99.14460660096054 109.54271100010244, 158.6760763081285 36.95191207613294 M-0.8144124067809716 219.82387408261036 C44.33440004870208 169.1365986873717, 89.48734597958264 117.10812339306567, 159.0567854894808 37.0044923323504 M0.8113166882878509 224.87502725605597 C45.72391042395646 174.5765434528428, 86.3538330827317 123.66731933916304, 159.29438907702763 44.072962692380166 M0.9253498734260943 225.6091534642049 C44.47018920615373 175.78502579092188, 86.92987344883323 123.81268568711873, 158.94692041134934 43.831715335522276 M0.739019789351245 231.81987857470025 C56.100962994176705 162.61699987590313, 116.12879354653768 95.1350950988278, 160.3040788755564 49.791326982159035 M0.4455411404260051 231.2126675044419 C46.4310849511801 178.52361123957215, 90.85792683438378 125.2373506164404, 158.59627790304444 49.97188125646538 M-0.6766406019909246 238.214626002457 C60.144270185711356 167.65655335962737, 118.51899742857492 98.62975645371272, 159.1656844222713 57.20579154349316 M0.22524781213863665 237.167544450505 C58.81569238331134 171.33667758925128, 116.26872855636385 105.34381280112802, 158.0653153254647 56.1660731919274 M1.219208201604904 243.89271946424532 C53.93047662529925 181.69189904331682, 111.58239279772316 117.64268444152425, 158.09115369159576 62.1881938114975 M0.14545082048059121 244.076755212542 C56.28885618906999 176.57786778187838, 114.13475176699059 111.49077570465187, 159.52306662577402 60.62915073037436 M-1.8338076106777905 249.29613345384308 C35.050060039821204 211.34635221385673, 69.54786190848768 170.4700265483832, 157.00514785345936 68.74510981573071 M0.09042632595131889 250.56890767758568 C51.883785221655955 191.8227670684586, 101.55944579790136 134.57946093333663, 159.1713861458501 67.51500580937106 M1.7450067790099415 257.0529895766659 C38.50098138994944 211.65519090842608, 79.75276142241869 167.1580776684663, 157.96402067003243 74.72808410191834 M0.13220060329212863 256.3204239021253 C55.448986089406866 191.00873863783121, 112.68776135859679 124.97000200782558, 158.14523332142167 73.24167531169348 M1.3895817546932387 261.9437726719847 C61.17264699249378 192.86038883058185, 122.70461900981363 123.85422632931402, 158.06296823428602 80.0723392924645 M-0.11521829866557329 262.57476498875815 C44.86983174092712 211.87643138901822, 89.13228922225154 158.87961475085757, 159.3752658194014 79.48090879687486 M0.3963480040387973 268.20572313705617 C49.131393974090734 213.16042161780632, 96.23254996288965 159.78976138420535, 157.26165383605246 86.73947884905184 M0.26877632985868893 267.62045958904804 C41.07777220164481 223.3299769811059, 81.45183479778558 178.06458446048217, 158.64114300190667 85.36726939645554 M0.5280780479726079 273.2905273528917 C33.32438551544122 232.03753821130974, 68.61165209994057 192.29881630746274, 157.85912545444677 92.73833226585052 M-0.4131636006399342 274.404996776873 C61.2885656356294 205.06376925323073, 119.80442601852526 136.42344709564145, 159.61683132160104 91.28871367015898 M-1.8314067546200066 281.8438012930166 C41.46590036496526 233.94752759671718, 84.29303054952837 185.74315466893464, 159.0634178340327 99.16976234421932 M0.2676805035440818 281.0226945317471 C34.60065032368053 240.26003283223724, 68.28461005861595 201.41737243068044, 158.32849431352275 98.18585660940845 M-1.2094270574286126 285.7062591258036 C54.30460118382549 224.15320595349675, 104.76252187366218 162.47057926770654, 159.79518988079846 104.25327086381245 M-0.07871218480448361 286.22569956513735 C57.433619284607865 219.75471474432737, 117.08669940921529 151.73368695962915, 158.19488146919542 104.69639197291716 M-0.09286689948306139 292.0718824023737 C43.33066532851213 243.6307547112586, 86.61792465894692 193.49104179280715, 159.85712713865843 109.90585652891667 M-0.17466804145627784 292.438605413242 C55.943022554587046 226.801410313517, 112.91756229533375 160.95398533842402, 159.42547873522082 109.33248779206376 M-1.2025005334983896 299.2594199540895 C48.27483553489698 243.9401502668246, 94.87497781122066 186.9945648256024, 159.50479882618862 116.68660918587271 M0.8768264440692056 298.7363957194795 C36.73315080486446 259.1257464377926, 70.61778666258563 219.43851546813568, 159.20433724300315 116.82341524033302 M-1.2345906882151059 305.39997831033617 C33.17809313243562 265.72873454892823, 63.721385212118385 228.32915306148158, 157.202603701466 122.8218272054811 M0.4958187369183297 304.31362612641567 C61.89688626937222 234.59348831241417, 123.20581249189476 162.14137029044184, 159.25916946598724 122.78752241054826 M0.25221084791069337 310.7901549270381 C57.39821652741313 244.80588914513197, 117.59512933401977 181.20902240410027, 159.1959666660838 129.56965455825406 M0.20930801885617573 311.4288200364156 C47.998501217914445 252.73516547250662, 98.58697599321424 194.7473619723588, 157.80059480840447 128.8302461194865 M0.40654309420659207 316.1445809819849 C50.20284639490798 254.88300170907863, 104.17959058863592 196.2563159256971, 157.36251716206013 133.59705611907816 M0.8464681671440984 316.79457994835815 C51.1592314900787 257.1399511470013, 103.78968447854709 196.6317105072319, 158.74255694392843 135.51784668306053 M0.9027500969639881 322.5413317711165 C45.337262493073396 270.1205367547746, 92.24594289254382 215.19810153191392, 158.6472746502216 141.8644058678583 M0.23231439475657079 323.72734011687055 C37.663561006401245 280.9681889542041, 74.65126034863967 237.47878513728818, 158.6107246312523 140.4113218017123 M0.766564975631904 328.7686842570725 C36.33223734311738 287.02435898879077, 73.17060201800996 243.7679869546355, 159.68145832041412 148.29133601997142 M-0.05570382472198676 329.31624797441657 C34.14296990221863 288.1860568164166, 69.40861668915285 249.19546952986624, 159.185559900512 146.90303532492706 M1.5794028215929754 334.28827175095876 C58.305804933287824 268.245259967989, 113.327130868319 203.52903681587887, 159.5264127487849 151.0494682109402 M0.3724176257585475 334.6047252272813 C35.48497717839341 297.08486927658373, 70.12958084299778 256.7500574500029, 159.29231908293227 153.03649183891852 M6.90932523689301 332.7910547560567 C54.09554761285387 280.849167691346, 98.25759961578943 225.92002379171944, 157.57890355393585 159.62572273903658 M5.755737996176128 334.6439317114253 C38.24463048620288 296.84400895580734, 71.51808006877978 257.80488957567513, 159.20274574968516 159.1278961545925 M11.703437234887913 332.8795764077025 C67.3268452737081 272.28113286674824, 119.2757972326514 210.80392130201326, 159.80779756715313 165.5153570370973 M11.843111931779937 334.66573968260286 C49.09830544433572 293.6580302371497, 86.37706800005462 251.5520839427814, 159.03619607802935 164.87522354290158 M15.480832018901907 332.90398320569676 C54.623214960761075 290.70232477715325, 92.362122970315 246.14876315018643, 159.61898649047393 172.23506056308605 M16.21561186052049 334.79093557635167 C58.6611056518814 287.7425998444418, 97.67744811950398 241.96874978135097, 158.07994896393282 171.68137049746474 M22.742897106253068 333.18195477200237 C50.737862735801 303.2015432780256, 79.95349256616811 268.9578667947184, 157.76247314375544 176.54014660205178 M21.861922058788743 334.41721302143094 C49.73650973106451 304.1748236410241, 76.84182430703594 272.0942760197939, 158.5898484684546 176.98030275456082 M28.83574243803394 332.75096882487867 C58.47666310353826 300.7416295588278, 88.93647652074246 266.6665093855826, 160.2922284206293 181.5074624853396 M27.382302152531356 333.90803932961495 C67.50870754319087 288.483324913465, 107.152201166711 242.74071400288562, 159.5959315772093 182.79148575848353 M31.831140296059743 332.83441602820346 C70.57294457440423 289.46972026359646, 105.86655720979388 249.7463479278859, 156.73735574442784 187.7815118529207 M31.712738475288347 333.4601255721394 C68.54942372245496 289.9287438989832, 106.12325753430414 248.4126344033902, 159.09965778417777 190.46327262132678 M36.3653497698582 334.4191822119272 C63.85854350056114 303.6670262590961, 91.50621672682412 275.1968317926777, 157.59547519571504 197.24568322532417 M38.72380921736874 333.61517299322696 C83.06252247483906 281.0103333894914, 128.49553652892774 229.62462022330953, 158.1710019146966 196.49593518440219 M44.85040519818665 332.6691174943063 C79.99845181007115 289.98818661503117, 119.76984697482533 245.8261354306792, 160.36969586654453 201.45172514140629 M43.26760171506555 335.1621837558288 C69.39236117689201 303.39015416452094, 95.27185725593634 273.9079363350661, 158.2405977240473 201.75528865706198 M47.9541985648074 334.6379741016141 C80.87447917679593 297.35255242434766, 110.84140923868961 264.68705848165155, 158.51187674971652 209.84527502333128 M49.134108782219215 334.08407878739 C80.9747888036128 294.6303819453768, 114.82607230476944 257.3216731222285, 158.31697534760815 207.7596938501423 M55.300463862520616 334.3495144560147 C77.40903480662635 309.9213981059176, 95.46986768770593 285.6125381636504, 159.99069107899328 215.49180384737232 M53.37092305420802 333.4851563987467 C79.22864856929534 305.08939001927394, 104.93981067989642 274.1349365434967, 158.25848697421958 214.26746231608817 M58.52974932508863 333.9473345337814 C95.32697441425913 292.2652277434372, 129.79070315992584 250.48678964199462, 157.85565409717503 218.3017927856938 M60.125459219872425 334.459665642344 C92.32256764356785 298.32210490920875, 123.64800829625034 262.0250988916892, 159.11858461425993 219.22078299073587 M65.86344519531161 334.9200405070785 C100.17414253151861 291.96045461707973, 140.65796533238665 250.00712222590678, 156.64203625903355 226.93526614479163 M64.99023178959072 334.03573295401816 C89.67722005903488 304.3035303400413, 114.36560015680855 275.9805235866546, 158.3319833025791 226.36900513175317 M69.16475595695184 335.25107210217914 C91.89474209213957 310.3916542999851, 110.43899508885909 285.1993159681573, 158.21518614434052 230.2534201061618 M70.84507732720331 334.04393551121404 C101.05505206645326 297.86502470721115, 133.32494728115756 261.9467013517292, 159.3402340115269 231.43901705930796 M74.50272810280961 332.64387924124776 C90.58851524112731 314.11477841724655, 109.99752029495846 295.97205520639557, 157.6148533708963 238.77025146696863 M74.20243221808863 335.06122787476806 C107.11911655994167 296.99118479602265, 137.70154583834167 260.2071230861611, 158.2172965639818 239.30562489673642 M81.21322236664713 333.6717454005575 C108.97400189548897 300.02083472514636, 137.06953007632788 269.4032371935775, 159.4601017974631 244.5570905784853 M81.04955490108699 333.2795153471252 C109.00229471846416 300.0034823356602, 138.30193457212405 267.50606916649417, 157.85570283628414 244.6148355089836 M84.46294149126467 333.0029642522725 C113.65437239361376 301.0762609000716, 140.15911675269606 271.35707673841614, 158.51333729184114 250.4677779878761 M85.1938036365768 334.4495806141215 C108.51250707188908 306.57305684946397, 133.75810291750855 277.2315662203384, 159.31183452631228 250.72778314438568 M89.65434343143394 335.30537260288895 C105.57092529425961 316.1971926952429, 122.86705335464782 295.1792374604904, 160.0852209338022 258.043197376637 M91.4487997094079 335.504366683425 C105.85400888069512 318.6625093238978, 119.58878467086507 302.16900476129683, 157.9920863564161 256.3440123731105 M98.26996426692675 334.6979791339028 C119.99654459901097 305.05557110641394, 144.21805352929243 277.02115333825975, 159.87899192811798 260.962904301264 M97.2600003419302 334.72935562520354 C110.70108212151835 317.30540063315607, 125.22026204514515 301.28153122278326, 158.27843898644548 262.67185682782593 M99.7167411155433 336.2025931424781 C116.91129748375867 318.5984285726764, 129.8847004390706 303.51805181489004, 157.8347905175888 268.4967549339214 M101.33027160702204 334.9329473127931 C123.61606735806365 309.73690406599167, 145.68098084693355 284.0861588546781, 159.1540319267788 269.59881794436814 M107.73092533604584 335.64835747988843 C119.16222111078523 317.93312295881253, 133.9623681117351 306.9675582816263, 160.53457118597686 275.4094390008824 M107.8060516310238 334.069742361139 C119.98718293519565 319.5754704761771, 133.40519522257202 303.741624955893, 159.3893267412564 275.3148479001822 M112.94211029623466 332.8969251932978 C119.83685094662036 322.7502857501325, 132.759742364584 314.9112635031935, 159.76613042608244 281.18565642431133 M111.6226283618139 334.18446876857723 C123.93249220119823 320.7168370580237, 136.46644026129522 305.88719015702833, 157.88738481525672 280.25627625610434 M115.93420360487198 334.99228288397956 C126.36788616121427 323.94167884253494, 138.16423834182808 313.78383061769193, 158.92801994267728 287.9346502607041 M117.34636180073267 333.28055527505296 C131.67033238927775 319.07226724663775, 143.82087804189254 302.7069113838329, 158.8700305586296 286.7290928948023 M123.80945487975806 333.385927349098 C131.05703237638593 326.7645603832424, 140.35705628569954 315.16550051587694, 158.8738695655331 291.84183544155667 M122.5199617706585 334.2640580039024 C132.65891956447655 322.88826737898756, 142.5689248163206 312.14683055390094, 159.50342431872488 293.079326761444 M127.24942797965517 335.0866889399262 C140.39675968206595 322.33905426779353, 148.47188495536662 309.3355870692019, 157.75671016245022 300.6204275140334 M128.50471014793177 334.8122338200705 C135.7274579125772 324.4495782688012, 144.22215767010456 315.80769666618454, 158.523635293421 298.8634246043656 M133.07902877236353 335.88590820362856 C141.08789388713257 327.12316712532515, 144.59539727462763 320.67673894460376, 159.43388684219082 305.4159755794075 M133.82573863043086 334.3174669718935 C141.34955485229565 325.2886314586901, 149.23275437925565 314.71689901251875, 158.42280473405827 305.4715339135122 M137.32747736664538 335.50725924147827 C145.75624351410104 327.8348358967914, 152.81131223791726 319.05521170926, 158.0310867225552 310.0315389348432 M139.01425096949612 333.7558424493165 C143.29038739418885 327.7377249949256, 148.95272304124632 322.37128681593697, 158.79442371351513 311.0714295622199 M145.79233588030095 334.83192635063966 C145.60683887169247 329.02077482670904, 150.08354495939193 324.3440664134925, 158.34725213331507 318.8322200118365 M143.9528007380059 334.6310726256757 C149.76632231775764 327.4473870305649, 153.64314750669578 321.7218878601903, 158.51949632914142 317.23179674565665 M150.6294835212915 334.7449610614167 C152.10865598704495 333.09293252514294, 152.98200692695806 328.9100812663958, 159.40382744305631 322.57903683862935 M148.96140654443712 334.60121132488786 C152.18739654591351 331.4788737520572, 155.26569270858013 327.4702793860899, 158.4890738036377 323.9061084618541 M154.1438929370455 334.5412233632787 C156.34661205960882 332.9290228352949, 157.05496530652493 330.48648430963027, 158.24704054680055 329.29890596282314 M154.63926337117698 334.16744932362644 C155.28996496164817 333.49877118032816, 156.18498828289194 332.2825032314917, 158.54120826350857 330.0687591763457" stroke="#ced4da" stroke-width="0.5" fill="none"></path><path d="M1.880464242771268 -0.11053718812763691 C44.926535031377725 2.1940903230694677, 91.2586642458875 0.7368669672993566, 158.1942090857774 1.1902170609682798 M-0.5957087660208344 0.5421554083004594 C55.39355596471215 0.14682154006128267, 110.32662925104816 0.44939781374101595, 157.86468975897878 0.9627931648865342 M156.96858707891053 0.6711240898500264 C156.6961356924397 134.26278449467043, 156.93964366164286 266.2916166078881, 157.289123383756 332.5745616164814 M158.09227170879706 0.008307617599535628 C159.93095894773384 98.76434865321868, 160.27308441110384 197.71439826365594, 157.38772949131305 332.79431007799775 M157.2101872432977 334.8742024730891 C110.74170050784814 334.92193218586186, 62.7112497373644 333.1977906477187, 1.2749429810792208 332.1749834250659 M158.13750769849867 333.5598954791203 C124.78965682597263 333.91408527661775, 92.81646167701838 334.1975022332809, 0.3145333444699645 334.2414146596566 M0.268069585072842 333.57736803865754 C-1.8560706589246299 206.89595733953223, -1.4438946460669446 81.72904484645984, 0.25552715142995946 -0.8246657806772189 M0.010594495393766314 333.8845249306187 C-1.1011933727916716 201.6003209975088, -1.6521896409081902 68.57033462765571, 0.28609423492424424 0.18013537194267432" stroke="#000000" stroke-width="1" fill="none"></path></g><g transform="translate(541.0171130952381 336) rotate(0 23.5 12)"><text x="0" y="19" font-family="Cascadia" font-size="20px" fill="#000000" text-anchor="start" style="white-space: pre;" direction="ltr">List</text></g><g transform="translate(262.3013924319728 133.32366071428572) rotate(0 416.1870216836735 264.8636798469388)"><path d="M-0.03239043429493904 -0.3186538510024548 C276.6885724320081 -2.8026744818900844, 551.9638985490435 -1.5703516221259852, 832.9374772462158 0.7167668767273426 M0.02125935293734074 -0.18977436162531378 C317.95085324630327 -3.5031559760984914, 635.6334718131311 -3.6550281222281, 832.6890228345154 0.3738596882671118 M832.2157534989624 0.7897632069885732 C832.0814487899142 183.58437690350084, 832.2297209466296 365.3196590875619, 833.138914695671 529.2312492255198 M831.9740958287476 -0.2676357302814722 C830.7019416565288 122.2410165851237, 830.5712830180515 245.02207757667634, 832.1075959875344 529.6458887599485 M831.8328952941208 529.5687169913278 C558.1669887569177 526.7492119481936, 284.1813732048222 526.5312464168444, -0.07651425078511238 529.1079600457178 M832.09218985579 529.9765033267515 C566.0699685786574 532.6131695762466, 299.41632373279924 532.3687780514548, 0.2517416331917048 529.5477354906576 M0.43649100586771966 529.1847039345728 C1.0398592029848168 402.12749246599776, 0.7467937742509911 275.6201780005965, 0.15595194622874262 -0.04360359236598015 M0.2888837192207575 529.6333701990621 C-0.798237142107736 423.2195345844765, -0.4739618511417021 316.03872776322584, -0.38547058366239073 0.14945603273808958" stroke="#000000" stroke-width="1" fill="none"></path></g><g transform="translate(296.5703125 190.85565476190487) rotate(0 76 12)"><text x="0" y="19" font-family="Cascadia" font-size="20px" fill="#000000" text-anchor="start" style="white-space: pre;" direction="ltr">front-end app</text></g><g transform="translate(10 735.6227678571429) rotate(0 548.5026041666667 302.94828869047626)"><path d="M-0.5843757681548596 -0.4027046032249928 C218.8799331256611 -3.9454376489928125, 438.1478499601509 -3.4004789383223413, 1096.3873102692269 0.6425475053489209 M-0.23239310123026372 -0.24738948605954647 C385.27168268725563 -0.7461974628274526, 770.6959943003264 -0.8770853646104422, 1097.192167131727 -0.11184274218976498 M1096.3983009842536 -0.024647433310747147 C1098.685907053754 127.78043503563742, 1098.0209551332446 254.57183876313053, 1096.2325223711632 605.1724974553856 M1097.2833835051706 -0.20628024600446226 C1096.634872236615 177.16480264567778, 1096.7435271290594 354.3117983944157, 1097.3582861707857 606.116869040561 M1096.4902110842368 605.664366237429 C741.3706697146297 607.4708458739541, 385.10458980132137 606.3344767648003, -0.43302729651331906 605.6359473865303 M1096.778936748331 605.9408977232697 C777.7528665777951 609.028126493607, 457.86233984903174 608.8561520134549, -0.04382840730249882 606.2555284820321 M0.40241410210728645 605.2277002017769 C0.2609326878592366 465.51468842468836, -0.475987311263383 324.1904881405197, -0.12458124682307244 0.738634603470564 M0.0110415305942297 606.0823006950143 C-1.8826109851862263 406.87940800814096, -1.800948127653725 207.16719868613586, -0.009875658527016641 0.09208724237978459" stroke="#000000" stroke-width="1" fill="none"></path></g><g transform="translate(27.59188988095235 698.2135416666672) rotate(0 76 12)"><text x="0" y="19" font-family="Cascadia" font-size="20px" fill="#000000" text-anchor="start" style="white-space: pre;" direction="ltr">front-end app</text></g><g transform="translate(350.40178571428567 932.4512648809524) rotate(0 61.504836309523824 70.5868675595238)"><path d="M0.42181889526546 1.6198933590203524 C45.744682151181536 -0.06051955966038447, 89.53426408080367 0.6960306927772071, 124.23647435532797 -1.053388012573123 M0.14522814098745584 0.30759360548108816 C36.183344363273406 0.9969497993361509, 73.53432012077664 -0.01741608234529135, 123.4236897235914 -0.9803465688601136 M121.79770453797568 1.0887585747987032 C121.59739939425495 36.923336419509546, 121.98557398770359 76.48580618621746, 124.32215263472784 139.8965720176874 M123.09373915253121 -0.02436221484094858 C122.37588145229523 29.097536277272795, 122.67812203261559 57.21039298319269, 122.16961982903916 140.98550861945284 M124.56522180663336 141.0885690689264 C85.59700251778644 142.2878079663685, 45.269696238583066 139.76580520977288, -0.6105106044560671 139.21634742023332 M123.68905738053758 141.75555699935092 C91.76016658440912 139.7889674899417, 62.1283272180292 140.01425042723, 0.49830075446516275 140.6494539069189 M0.135198337957263 139.33270665408952 C0.414854118767055 94.09035672074467, -0.061545720157352934 45.48959499845937, 0.8667043875902891 0.6874933708459139 M-0.1565552121028304 142.09709170332087 C-0.7711849997607108 84.05014564767404, -0.03302561145695404 29.32539559880213, 0.5454412633553147 0.995223424397409" stroke="#000000" stroke-width="1" fill="none"></path></g><g transform="translate(357.5312499999998 903.9148065476189) rotate(0 47 12)"><text x="0" y="19" font-family="Cascadia" font-size="20px" fill="#000000" text-anchor="start" style="white-space: pre;" direction="ltr">index.js</text></g><g transform="translate(587.3530505952383 930.1540178571429) rotate(0 75.91145833333331 74.66052827380952)"><path d="M0.8684062790125608 -1.160505784675479 C37.85621997036407 0.06644657258342135, 75.24904579245289 0.47576209906886446, 151.87983735712862 -0.3813507091253996 M0.2350557679310441 0.3769737994298339 C45.08213227710317 -1.710227050122436, 89.09665206172696 -0.8477437573043665, 151.49087635024136 0.08188583608716726 M152.94404300364351 1.889412211254239 C151.69078195046976 54.555901236371156, 153.06904405307367 112.0617934139539, 153.2258630028615 150.94365101032668 M151.6234273050601 0.44902589078992605 C153.18482455961293 47.582628085386936, 151.57272512070722 92.64801490980572, 152.70335823638982 149.11606865566932 M153.3464193573842 150.3194401758235 C121.98706324486311 148.81127489436108, 91.58581984901681 151.01833135712582, -1.7906417418271303 149.25353681021147 M151.29882270439214 148.781403595626 C100.95893618648307 150.64998861600975, 49.17498171355692 149.3419034426413, -0.6746689742431045 148.37500085872375 M-1.1210588980466127 150.68698893957549 C-2.1333797055954378 90.01893093599469, -0.1705953556770725 32.66256612394223, 1.5901090931147337 0.15603374131023884 M0.6490898663178086 149.53799357455932 C-1.0291861428883877 105.07154774587303, -1.6984698011544552 61.99507746497727, -0.06167248543351889 -0.9925443613901734" stroke="#000000" stroke-width="1" fill="none"></path></g><g transform="translate(595.8426339285714 898.9203869047628) rotate(0 35 12)"><text x="0" y="19" font-family="Cascadia" font-size="20px" fill="#000000" text-anchor="start" style="white-space: pre;" direction="ltr">App.js</text></g><g><g transform="translate(491.87313988095235 984.5345982142858) rotate(0 41.34398295409267 0.5045024646640854)"><path d="M-0.9274546343833208 0.4373436827212571 C12.944797217023984 0.32260879823966576, 69.79188351965254 0.09010631637790618, 83.61542054256864 0.06188533265315077 M0.7864929532259701 -0.37865482918918136 C14.521285946143283 -0.38994788398937624, 69.05715454018421 1.0775383998654169, 82.99125211379 1.3876597585173704" stroke="#000000" stroke-width="1" fill="none"></path></g><g transform="translate(491.87313988095235 984.5345982142858) rotate(0 41.34398295409267 0.5045024646640854)"><path d="M55.28722633469266 11.984977804829219 C63.26136219987416 6.360021790512885, 73.03969626607314 2.883708507251992, 83.79433855666288 3.173343675399051 M53.97831844865692 11.692410973605552 C65.0015290470691 7.71236932054607, 72.96468156441301 4.881526531360529, 83.75300590480187 2.0049056924896695" stroke="#000000" stroke-width="1" fill="none"></path></g><g transform="translate(491.87313988095235 984.5345982142858) rotate(0 41.34398295409267 0.5045024646640854)"><path d="M55.78834606682781 -8.530111310256396 C63.724467161197964 -7.35150479894973, 73.33651677831236 -4.020382508104709, 83.79433855666288 3.173343675399051 M54.47943818079207 -8.822678141480063 C65.30171509171869 -5.877866072715127, 73.09578099685439 -1.786556938567732, 83.75300590480187 2.0049056924896695" stroke="#000000" stroke-width="1" fill="none"></path></g></g><g transform="translate(563.7295386904761 780.6190476190476) rotate(0 236.98381696428578 237.52325148809524)"><path d="M-0.4224210069767059 0.48067055777475476 C119.81106051259835 -0.5982063345126747, 238.53703173861388 -1.059569492770656, 474.4925515702843 -0.36980030428374105 M473.32047719044834 -0.020767589583882903 C474.5391032370543 109.65956463568419, 474.25983305159025 219.91015109962467, 474.2998941561447 475.57176756288834 M474.0525666317863 474.96575249940366 C287.0454281360911 474.74342438994125, 101.2032017536535 476.14424451442477, 0.240915605413288 474.98890843459225 M-0.019926262111774447 475.71365024836854 C-0.9065449819815121 311.1032103487631, -1.3875013024297973 148.8570763810368, -0.3932307205548719 0.4666962743404911" stroke="#000000" stroke-width="1.5" fill="none" stroke-dasharray="12 8"></path></g><g transform="translate(758.077380952381 791.600818452381) rotate(0 23.5 12)"><text x="0" y="19" font-family="Cascadia" font-size="20px" fill="#000000" text-anchor="start" style="white-space: pre;" direction="ltr">src/</text></g><g transform="translate(815.5245535714284 844.5420386904764) rotate(0 84.66796875 65.1320684523809)"><path d="M-0.8070855867117643 1.1716438364237547 C52.05724510233631 1.3066575434550032, 105.0003588266627 2.934631636415361, 170.99850343354046 1.7201779317110777 M0.36836071964353323 -0.859702087007463 C39.19021030151271 -0.7832838632366474, 79.99114675929741 -0.7627472318908985, 168.91151147242635 0.5312229925766587 M168.61571715958416 -1.7560522127896547 C170.70417866289912 48.876919185975886, 167.18964317620097 94.47721961000998, 167.84988169558346 128.86440191409054 M169.95735483523458 0.4361891085281968 C167.34291040969106 48.20810743962887, 168.73610583019467 97.29160356766558, 168.57862200494856 129.88787527652892 M167.51206307299435 130.02167091509762 C127.35046145334127 132.29274790266243, 85.591495408029 131.83886240699974, -1.4318252932280302 130.6254074945158 M169.9487832998857 130.94374318691405 C127.18581101778909 129.09408854208993, 87.37183527957677 129.50684280954408, 0.9470865642651916 131.07968054982337 M0.868585454300046 129.7526014222807 C-0.3717088220435558 104.38759272466815, 1.5447974087875904 76.60941988826167, 1.6575938928872347 1.714803559705615 M0.3957161819562316 129.8799561140171 C-0.6992875171925421 95.90796444611098, -0.9065922035004492 60.69658621967214, 0.3658736562356353 -0.9127398496493697" stroke="#000000" stroke-width="1" fill="none"></path></g><g><g transform="translate(897.6302083333333 906.1212797619048) rotate(0 -0.9432219555884558 0.18890546774935046)"><path d="M-1.1474286396056412 -0.3278624039143324 C-1.4412489373236894 -0.03289750022667026, -0.9817990858107805 0.4491090857497169, -0.6460993487387895 0.7056733394129651" stroke="#000000" stroke-width="1.5" fill="none" stroke-dasharray="12 8"></path></g></g><g transform="translate(838.2263764880956 862.0900297619053) rotate(0 17.5 12)"><text x="0" y="19" font-family="Cascadia" font-size="20px" fill="#000000" text-anchor="start" style="white-space: pre;" direction="ltr">Map</text></g><g transform="translate(816.4778645833331 1006.9955357142851) rotate(0 84.66796875 65.13206845238085)"><path d="M1.1291202772408724 -0.23509730584919453 C42.21254426482847 -1.8322076210261002, 83.9245559751944 -1.0058997878313676, 170.77671979553998 0.0021880101412534714 M-0.3152497196570039 0.5807824367657304 C65.44430137992822 0.6877161888205592, 129.22834951167897 2.0292519656741206, 168.84717898722738 -0.8621700471267104 M167.70570109970868 -1.141278462484479 C171.78215669212537 42.873968440119405, 170.93989293394284 83.50986468049184, 168.36293082125485 130.25874719759884 M169.4383104359731 -0.35600764211267233 C168.65352805660308 38.19239267024418, 168.99745284722388 75.78039812328707, 169.95864071603864 130.77107830616148 M170.84469227679074 131.36596737048092 C107.36873304299297 132.56954602336225, 48.78271407103601 131.71829114293394, 1.3736737836152315 130.87134579560222 M170.30768384691328 129.43204875560912 C130.82782940115794 131.46570629980522, 91.87363165553688 131.95043627526718, 0.500460377894342 129.98703824254187 M-0.7485228907316923 130.31567839524212 C1.2018916602407566 87.7057629977238, 2.980122744587528 47.39850377391153, -0.9680898915976286 1.3328426908701658 M-0.263434418477118 130.0213225957981 C-1.2220726485242523 81.00109289934156, 0.22350047278502805 30.438253988102304, 0.7122314786538482 0.12570609990507364" stroke="#000000" stroke-width="1" fill="none"></path></g><g transform="translate(837.151041666667 1026.6733630952392) rotate(0 23.5 12)"><text x="0" y="19" font-family="Cascadia" font-size="20px" fill="#000000" text-anchor="start" style="white-space: pre;" direction="ltr">List</text></g><g><g transform="translate(743.0729166666666 961.8690476190476) rotate(0 32.89901815903414 -29.03137234471467)"><path d="M0.7673030991107226 -0.7121028263121842 C11.287538828139036 -10.468869261958051, 53.21260449977978 -48.24640293676579, 63.96073596550243 -58.04806340012162 M-0.2890015031956137 1.5284392445348205 C10.512163517677067 -8.58048057162424, 55.27473710779488 -49.60328144034544, 66.08703782126399 -59.59118393396422" stroke="#000000" stroke-width="1" fill="none"></path></g><g transform="translate(743.0729166666666 961.8690476190476) rotate(0 32.89901815903414 -29.03137234471467)"><path d="M51.098213594010716 -34.81386040321078 C59.12121482432861 -42.59719974577058, 61.77049908605603 -54.38538231131261, 65.18686599187645 -59.78556030017718 M52.45506732219333 -32.127547300257646 C57.95268056043991 -41.85395466941992, 61.18495681779948 -51.448791155033234, 67.02275465052666 -59.60411859543457" stroke="#000000" stroke-width="1" fill="none"></path></g><g transform="translate(743.0729166666666 961.8690476190476) rotate(0 32.89901815903414 -29.03137234471467)"><path d="M37.20562811568526 -49.91737228334184 C50.43009233088601 -52.20209795880201, 58.21884781539371 -58.40283499147624, 65.18686599187645 -59.78556030017718 M38.56248184386787 -47.231059180388705 C49.215832459642286 -51.418807479282435, 57.490024270097194 -55.53225739552035, 67.02275465052666 -59.60411859543457" stroke="#000000" stroke-width="1" fill="none"></path></g></g><g><g transform="translate(749.741443452381 1002.624255952381) rotate(0 32.80520265242751 22.20589632730531)"><path d="M-0.7445266228169203 0.9553900044411419 C9.741564980167018 8.417495439290288, 53.1001358584457 36.92971201806905, 64.04675259265522 44.00042684317698 M1.0654581708647313 0.4113658114336429 C11.837339857853074 7.586616222779486, 55.82715472142705 34.80724699077771, 66.35493192767198 42.185107437066186" stroke="#000000" stroke-width="1" fill="none"></path></g><g transform="translate(749.741443452381 1002.624255952381) rotate(0 32.80520265242751 22.20589632730531)"><path d="M38.7359589251042 34.069500937198896 C49.589691108702844 38.42520516716147, 60.069722072285444 40.91679271243574, 67.03338953239317 44.01214493355845 M36.35436173866546 35.99171435281416 C47.36215552057459 36.93064478272091, 58.07960799315049 40.28168771569745, 65.74229940624382 41.80066557797735" stroke="#000000" stroke-width="1" fill="none"></path></g><g transform="translate(749.741443452381 1002.624255952381) rotate(0 32.80520265242751 22.20589632730531)"><path d="M49.962771878073596 16.891646784107536 C56.28053840922 27.948923572529658, 62.335144037209645 37.211739185704076, 67.03338953239317 44.01214493355845 M47.58117469163486 18.813860199722797 C54.6050314362979 25.7254324505723, 61.43408107196441 35.02601931028093, 65.74229940624382 41.80066557797735" stroke="#000000" stroke-width="1" fill="none"></path></g></g><g transform="translate(852.6065848214286 897.6555059523812) rotate(0 47 12)"><text x="0" y="19" font-family="Cascadia" font-size="20px" fill="#000000" text-anchor="start" style="white-space: pre;" direction="ltr">index.js</text></g><g transform="translate(852.0688244047614 920.3671875000005) rotate(0 58.5 12)"><text x="0" y="19" font-family="Cascadia" font-size="20px" fill="#000000" text-anchor="start" style="white-space: pre;" direction="ltr">style.scss</text></g><g transform="translate(852.7181919642859 1062.04334077381) rotate(0 47 12)"><text x="0" y="19" font-family="Cascadia" font-size="20px" fill="#000000" text-anchor="start" style="white-space: pre;" direction="ltr">index.js</text></g><g transform="translate(852.1804315476185 1084.7550223214298) rotate(0 58.5 12)"><text x="0" y="19" font-family="Cascadia" font-size="20px" fill="#000000" text-anchor="start" style="white-space: pre;" direction="ltr">style.scss</text></g><g transform="translate(87.53720238095235 852.1681547619048) rotate(0 103.00874255952382 153.13430059523796)"><path d="M1.463541276320361 -0.7179766505650387 C43.99096938958002 2.1770782510705375, 86.2853076213263 1.8065917834132783, 205.9451386848216 -0.09425155264295158 M0.2399489113967348 0.8419598041076132 C59.50429480747676 -0.5502124368176426, 118.00734089505472 -1.6825939551924913, 206.5248857759844 -0.3031928331953892 M205.91054163115024 -1.1522661713790123 C204.87356811365476 113.10719540412717, 203.91690469302645 224.75299161700354, 205.7910614234757 305.99428473684964 M205.6124140374391 -0.21552608545692556 C204.97544063007877 113.17438034932111, 205.33895439813344 225.6145766279634, 205.67959336090857 306.18130532727145 M205.88889109356754 307.1561305260063 C134.81080304330868 308.4873742682419, 63.98946370377502 307.31682964247665, 1.39712149608065 306.75978970489354 M205.4180507390498 306.61267471061683 C162.3113212190815 306.00244337780754, 116.9251616162182 305.2333448963876, -0.6527178013437359 306.50696419664285 M-1.0582097862207354 307.4694890472333 C-0.5375803798792606 185.47671975123203, 0.2014336475484665 67.20815416094122, -0.4192597772906409 -1.306216578662008 M-0.7194938803277402 306.8598733901426 C-0.4962933223377752 214.93058209861567, -0.726647325244033 122.72911594605448, 0.29510623742800385 0.6798518603837828" stroke="#000000" stroke-width="1" fill="none"></path></g><g transform="translate(87.34263392857144 817.381696428572) rotate(0 58.5 12)"><text x="0" y="19" font-family="Cascadia" font-size="20px" fill="#000000" text-anchor="start" style="white-space: pre;" direction="ltr">index.html</text></g><g><g transform="translate(302.79947916666663 1005.3489583333334) rotate(0 19.336462517547503 1.206921959451961)"><path d="M0.8498651783913374 0.6420261282473803 C7.236896014716191 0.9971096980843717, 32.41576976580402 1.1702817903328802, 38.836019367387664 1.4283831671767075 M-0.1630943322926759 -0.06651409976184364 C6.024737914707225 0.4734641653571302, 31.398587575981825 1.8987968830634023, 37.91067313413895 2.4803580186657745" stroke="#000000" stroke-width="1" fill="none"></path></g><g transform="translate(302.79947916666663 1005.3489583333334) rotate(0 19.336462517547503 1.206921959451961)"><path d="M20.26546579428416 7.887045187324794 C24.165222381932647 6.792100771497667, 31.805100007446114 5.332998150516911, 36.48649179418106 2.4968632139835902 M19.130827919080794 6.989185215941049 C23.973575456829803 6.989530848647932, 30.623736555792703 4.824037565109975, 38.54834858514013 3.359415322755042" stroke="#000000" stroke-width="1" fill="none"></path></g><g transform="translate(302.79947916666663 1005.3489583333334) rotate(0 19.336462517547503 1.206921959451961)"><path d="M21.206546553490263 -5.371897961668923 C24.706104395194878 -1.9147527991365831, 32.02336115797353 1.1715692268479323, 36.48649179418106 2.4968632139835902 M20.071908678286896 -6.269757933052668 C24.616414056801286 -2.279579582345433, 30.983833946250805 -0.4615150403273831, 38.54834858514013 3.3594153227550425" stroke="#000000" stroke-width="1" fill="none"></path></g></g><g transform="translate(1122.3184386022901 187.79626873897678) rotate(0 58.5 12)"><text x="0" y="19" font-family="Cascadia" font-size="20px" fill="#000000" text-anchor="start" style="white-space: pre;" direction="ltr">Map (data)</text></g><g transform="translate(1150.234374999999 239.7816220238086) rotate(0 299 12)"><text x="0" y="19" font-family="Cascadia" font-size="20px" fill="#000000" text-anchor="start" style="white-space: pre;" direction="ltr">- import modules (turf, mapboxgl, csv2geojson, d3?)</text></g><g transform="translate(1153.1276041666652 288.81436011904754) rotate(0 170 12)"><text x="0" y="19" font-family="Cascadia" font-size="20px" fill="#000000" text-anchor="start" style="white-space: pre;" direction="ltr">- map initialization (tokens)</text></g><g transform="translate(1154.8995535714257 338.07961309523785) rotate(0 181.5 12)"><text x="0" y="19" font-family="Cascadia" font-size="20px" fill="#000000" text-anchor="start" style="white-space: pre;" direction="ltr">- map interactions: click -&gt; {}</text></g><g transform="translate(1154.671875 445.32477678571394) rotate(0 105.5 12)"><text x="0" y="19" font-family="Cascadia" font-size="20px" fill="#000000" text-anchor="start" style="white-space: pre;" direction="ltr">- display a popup </text></g><g transform="translate(1155.5982142857129 501.22135416666646) rotate(0 88 12)"><text x="0" y="19" font-family="Cascadia" font-size="20px" fill="#000000" text-anchor="start" style="white-space: pre;" direction="ltr">- draw a buffer</text></g><g transform="translate(1156.0993303571413 393.88318452380895) rotate(0 181.5 12)"><text x="0" y="19" font-family="Cascadia" font-size="20px" fill="#000000" text-anchor="start" style="white-space: pre;" direction="ltr">- map interactions: hover -&gt; {}</text></g><g transform="translate(1150.0517113095239 548.1893601190475) rotate(0 193.5 12.000000000000028)"><text x="0" y="19" font-family="Cascadia" font-size="20px" fill="#000000" text-anchor="start" style="white-space: pre;" direction="ltr">- formatting csv data to geojson </text></g><g transform="translate(1150.999627976189 596.970982142858) rotate(0 135 12)"><text x="0" y="19" font-family="Cascadia" font-size="20px" fill="#000000" text-anchor="start" style="white-space: pre;" direction="ltr">- add new layer to map </text></g><g transform="translate(1155.9635416666652 645.6502976190466) rotate(0 111.5 12)"><text x="0" y="19" font-family="Cascadia" font-size="20px" fill="#000000" text-anchor="start" style="white-space: pre;" direction="ltr">- update/reset view</text></g><g transform="translate(501.3709077380954 56.41741071428578) rotate(0 211 12)"><text x="0" y="19" font-family="Cascadia" font-size="20px" fill="#000000" text-anchor="start" style="white-space: pre;" direction="ltr">- Pull in csv data from google sheet</text></g><g transform="translate(487.34858630952374 10) rotate(0 17.5 12)"><text x="0" y="19" font-family="Cascadia" font-size="20px" fill="#000000" text-anchor="start" style="white-space: pre;" direction="ltr">App</text></g></svg>