<?xml version="1.0" encoding="utf-8"?>
<!-- Generator: Adobe Illustrator 24.1.0, SVG Export Plug-In . SVG Version: 6.00 Build 0)  -->
<svg version="1.1" id="Layer_1" xmlns="http://www.w3.org/2000/svg" xmlns:xlink="http://www.w3.org/1999/xlink" x="0px" y="0px"
	 viewBox="0 0 30 30" style="enable-background:new 0 0 30 30;" xml:space="preserve">
<g>
	<path class="map-point" fill="#EEE" d="M14.5,2.6c-6.3,0-8.3,5.7-8.3,8.3c0,2.6,1.3,6.2,2.5,8.5c2,3.6,5.2,6.9,5.4,7.1l0.4,0.4l0.4-0.4
		c0.2-0.2,3.4-3.5,5.4-7.1c1.2-2.2,2.5-5.8,2.5-8.5C22.9,8.3,20.7,2.6,14.5,2.6z"/>
	<path class="circle" fill="#FFF" d="M14.4,15.2c-2.3,0-4.2-1.9-4.2-4.2c0-2.3,1.9-4.2,4.2-4.2c2.3,0,4.2,1.9,4.2,4.2S16.7,15.2,14.4,15.2z"/>
</g>
</svg>
